<?xml version="1.0" encoding="UTF-8"?>
<!DOCTYPE svg PUBLIC "-//W3C//DTD SVG 1.1//EN" "http://www.w3.org/Graphics/SVG/1.1/DTD/svg11.dtd">
<svg version="1.1" xmlns="http://www.w3.org/2000/svg" xmlns:xlink="http://www.w3.org/1999/xlink" width="3300" height="2200">
 <!--glyph: "x.logo", point size: 100.0, official X logo mark-->
 <g id="Notes">
  <rect height="2200" id="artboard" style="fill:white;opacity:1" width="3300" x="0" y="0"/>
  <text id="template-version" style="stroke:none;fill:black;font-family:sans-serif;font-size:13;text-anchor:end;" transform="matrix(1 0 0 1 3036 1933)">Template v.3.0</text>
 </g>
 <g id="Guides">
  <line id="Baseline-S" style="fill:none;stroke:#27AAE1;opacity:1;stroke-width:0.5;" x1="263" x2="3036" y1="696" y2="696"/>
  <line id="Capline-S" style="fill:none;stroke:#27AAE1;opacity:1;stroke-width:0.5;" x1="263" x2="3036" y1="625.541" y2="625.541"/>
  <line id="Baseline-M" style="fill:none;stroke:#27AAE1;opacity:1;stroke-width:0.5;" x1="263" x2="3036" y1="1126" y2="1126"/>
  <line id="Capline-M" style="fill:none;stroke:#27AAE1;opacity:1;stroke-width:0.5;" x1="263" x2="3036" y1="1055.54" y2="1055.54"/>
  <line id="Baseline-L" style="fill:none;stroke:#27AAE1;opacity:1;stroke-width:0.5;" x1="263" x2="3036" y1="1556" y2="1556"/>
  <line id="Capline-L" style="fill:none;stroke:#27AAE1;opacity:1;stroke-width:0.5;" x1="263" x2="3036" y1="1485.54" y2="1485.54"/>
  <line id="left-margin-Regular-M" style="fill:none;stroke:#27AAE1;opacity:1;stroke-width:0.5;" x1="1400" x2="1400" y1="1030.79" y2="1150.12"/>
  <line id="right-margin-Regular-M" style="fill:none;stroke:#27AAE1;opacity:1;stroke-width:0.5;" x1="1496.065" x2="1496.065" y1="1030.79" y2="1150.12"/>
 </g>
 <g id="Symbols">
  <g id="Regular-M" transform="matrix(1 0 0 1 1400 1126)">
   <path d="M56.411 -42.121L89.195 -80.23H81.426L52.959 -47.14L30.223 -80.23H4L38.381 -30.192L4 9.77H11.769L41.83 -25.173L65.841 9.77H92.065L56.411 -42.121ZM45.769 -29.752L42.286 -34.734L14.569 -74.381H26.502L48.87 -42.385L52.353 -37.402L81.429 4.188H69.496L45.769 -29.752Z"/>
  </g>
 </g>
</svg>
