<?xml version="1.0" encoding="UTF-8"?>
<!DOCTYPE svg PUBLIC "-//W3C//DTD SVG 1.1//EN" "http://www.w3.org/Graphics/SVG/1.1/DTD/svg11.dtd">
<svg version="1.1" xmlns="http://www.w3.org/2000/svg" xmlns:xlink="http://www.w3.org/1999/xlink" width="3300" height="2200">
 <!--glyph: "x.logo", point size: 100.0, X logo mark, generated by scripts/make_x_logo_symbol.py-->
 <g id="Notes">
  <rect height="2200" id="artboard" style="fill:white;opacity:1" width="3300" x="0" y="0"/>
  <text id="template-version" style="stroke:none;fill:black;font-family:sans-serif;font-size:13;text-anchor:end;" transform="matrix(1 0 0 1 3036 1933)">Template v.3.0</text>
 </g>
 <g id="Guides">
  <line id="Baseline-S" style="fill:none;stroke:#27AAE1;opacity:1;stroke-width:0.5;" x1="263" x2="3036" y1="696" y2="696"/>
  <line id="Capline-S" style="fill:none;stroke:#27AAE1;opacity:1;stroke-width:0.5;" x1="263" x2="3036" y1="625.541" y2="625.541"/>
  <line id="Baseline-M" style="fill:none;stroke:#27AAE1;opacity:1;stroke-width:0.5;" x1="263" x2="3036" y1="1126" y2="1126"/>
  <line id="Capline-M" style="fill:none;stroke:#27AAE1;opacity:1;stroke-width:0.5;" x1="263" x2="3036" y1="1055.54" y2="1055.54"/>
  <line id="Baseline-L" style="fill:none;stroke:#27AAE1;opacity:1;stroke-width:0.5;" x1="263" x2="3036" y1="1556" y2="1556"/>
  <line id="Capline-L" style="fill:none;stroke:#27AAE1;opacity:1;stroke-width:0.5;" x1="263" x2="3036" y1="1485.54" y2="1485.54"/>
  <line id="left-margin-Regular-M" style="fill:none;stroke:#27AAE1;opacity:1;stroke-width:0.5;" x1="1400" x2="1400" y1="1030.79" y2="1150.12"/>
  <line id="right-margin-Regular-M" style="fill:none;stroke:#27AAE1;opacity:1;stroke-width:0.5;" x1="1499.663" x2="1499.663" y1="1030.79" y2="1150.12"/>
 </g>
 <g id="Symbols">
  <g id="Regular-M" transform="matrix(1 0 0 1 1400 1126)">
   <path d="M60.267 -41.745L93.374 -80.23L81.426 -80.229L54.96 -49.465L33.822 -80.23L4.473 -80.229L38.644 -30.498L4 9.77L15.948 9.77L43.949 -22.778L66.314 9.77L95.663 9.77ZM21.118 -71.211L28.465 -71.211L78.954 1.008L71.607 1.008Z"/>
  </g>
 </g>
</svg>
